<?xml version="1.0" standalone="no"?>
<!DOCTYPE svg PUBLIC "-//W3C//DTD SVG 20010904//EN"
 "http://www.w3.org/TR/2001/REC-SVG-20010904/DTD/svg10.dtd">
<svg version="1.0" xmlns="http://www.w3.org/2000/svg"
 width="782.000000pt" height="782.000000pt" viewBox="0 0 782.000000 782.000000"
 preserveAspectRatio="xMidYMid meet">
<metadata>
Created by potrace 1.14, written by Peter Selinger 2001-2017
</metadata>
<g transform="translate(0.000000,782.000000) scale(0.100000,-0.100000)"
fill="#000000" stroke="none">
<path d="M1586 7804 c-39 -9 -97 -26 -130 -40 -69 -28 -166 -84 -166 -96 0 -4
-5 -8 -11 -8 -11 0 -139 -123 -139 -134 0 -4 -6 -14 -12 -22 -7 -8 -18 -20
-23 -27 -14 -17 -64 -121 -81 -170 -45 -127 -43 21 -41 -3417 1 -1785 5 -3254
9 -3265 3 -11 9 -33 13 -50 7 -33 20 -65 41 -107 8 -14 14 -31 14 -37 0 -17
84 -140 125 -183 116 -124 265 -206 430 -236 55 -10 1590 -9 1695 1 87 9 100
10 185 21 83 12 117 17 195 32 115 23 122 24 165 35 22 5 49 12 60 14 11 3 52
14 90 25 39 11 79 23 91 25 28 6 228 78 279 100 22 9 45 18 50 19 45 11 313
142 438 213 180 103 492 321 583 407 18 17 56 52 86 77 109 96 253 243 383
394 48 56 202 260 241 320 21 33 42 62 45 65 3 3 29 46 59 95 29 50 58 99 65
110 7 11 12 23 11 26 -1 3 5 13 12 22 19 22 97 176 139 272 20 44 43 98 53
120 59 133 165 462 195 605 26 120 38 179 41 200 2 14 7 41 10 60 10 49 11 57
19 125 8 62 8 67 22 200 16 161 9 611 -13 765 -2 19 -6 55 -8 80 -4 37 -28
184 -51 300 -8 40 -68 273 -77 300 -3 8 -16 49 -29 90 -46 147 -99 274 -126
303 -71 75 -193 77 -265 5 -63 -63 -69 -147 -21 -268 23 -58 62 -173 78 -230
1 -3 7 -25 15 -50 7 -25 14 -49 16 -55 1 -5 7 -28 12 -50 6 -22 14 -55 17 -74
3 -19 8 -38 11 -43 4 -5 7 -22 9 -36 1 -15 9 -67 18 -117 15 -82 23 -135 33
-220 22 -200 22 -535 -1 -740 -2 -22 -6 -60 -9 -85 -4 -43 -41 -264 -50 -305
-16 -69 -48 -195 -56 -220 -6 -16 -18 -59 -29 -95 -26 -88 -96 -277 -135 -364
-18 -39 -40 -90 -51 -113 -10 -24 -22 -43 -27 -43 -4 0 -7 -3 -6 -7 2 -8 -42
-102 -61 -133 -6 -8 -34 -55 -63 -105 -29 -49 -56 -94 -61 -100 -4 -5 -22 -32
-39 -60 -18 -27 -35 -52 -38 -55 -4 -3 -21 -27 -40 -55 -19 -27 -36 -52 -39
-55 -3 -3 -22 -25 -41 -50 -57 -75 -61 -79 -166 -196 -219 -243 -495 -470
-789 -647 -78 -47 -109 -65 -213 -116 -64 -32 -134 -66 -154 -75 -21 -9 -53
-23 -71 -31 -96 -42 -313 -117 -407 -141 -166 -42 -213 -53 -242 -57 -20 -2
-40 -7 -44 -10 -5 -2 -36 -8 -69 -12 -32 -3 -62 -8 -65 -10 -3 -2 -36 -6 -75
-10 -38 -3 -83 -8 -100 -11 -29 -4 -275 -16 -305 -15 -8 0 -53 0 -100 0 -47
-1 -98 0 -115 1 -82 4 -115 5 -115 0 0 -5 -72 -4 -188 2 -28 2 -52 1 -52 -2 0
-3 -65 -5 -145 -5 -80 0 -145 3 -145 7 0 3 -8 4 -17 2 -35 -8 -143 -9 -143 -1
0 5 -4 6 -9 2 -5 -3 -54 -5 -108 -5 -54 1 -109 1 -123 0 -42 -1 -131 21 -174
43 -93 48 -184 172 -203 277 -10 52 -9 6364 1 6429 17 110 104 221 216 275
l65 31 790 0 c689 0 841 -3 965 -20 86 -11 208 -31 250 -39 14 -3 50 -11 80
-17 57 -11 264 -66 290 -76 8 -3 20 -7 25 -9 278 -86 624 -256 880 -432 79
-55 195 -141 205 -152 3 -3 25 -21 50 -40 43 -34 78 -65 178 -158 26 -24 58
-50 72 -57 153 -80 317 68 261 236 -13 40 -113 141 -253 256 -46 37 -85 70
-88 73 -3 3 -39 30 -80 60 -41 30 -76 58 -78 62 -2 5 -7 8 -11 8 -4 0 -50 28
-102 63 -126 84 -182 117 -319 189 -30 15 -62 32 -70 37 -33 21 -192 90 -295
130 -60 24 -119 47 -130 51 -48 20 -223 72 -351 105 -158 40 -341 74 -489 90
-27 4 -70 9 -95 12 -25 3 -412 7 -860 9 -699 2 -825 1 -884 -12z"/>
<path d="M2255 6622 c-43 -21 -64 -43 -91 -94 -16 -31 -18 -101 -18 -938 -1
-512 3 -922 8 -943 16 -70 100 -137 172 -139 43 -1 94 12 94 24 0 6 3 9 6 5
11 -11 63 45 79 87 16 37 17 117 17 838 l1 796 28 4 c16 3 33 2 39 -2 5 -3 35
-3 66 0 30 3 57 3 60 -1 3 -5 10 -6 17 -3 23 9 92 10 114 2 13 -4 25 -3 28 3
4 5 10 7 15 4 8 -5 34 -6 130 -4 75 1 221 -13 365 -36 198 -31 445 -114 648
-219 68 -35 237 -135 247 -146 3 -3 27 -22 55 -41 27 -18 55 -38 61 -44 6 -5
36 -30 65 -55 49 -40 225 -214 275 -271 49 -57 154 -198 154 -208 0 -6 4 -11
8 -11 5 0 15 -12 22 -27 8 -16 19 -35 26 -43 28 -35 149 -273 173 -340 7 -19
19 -46 26 -60 7 -14 14 -29 15 -35 3 -12 4 -14 24 -77 22 -67 56 -198 61 -232
2 -15 7 -36 10 -46 3 -10 8 -35 11 -56 3 -22 7 -50 9 -64 25 -156 25 -515 1
-660 -2 -14 -7 -47 -11 -75 -9 -65 -11 -72 -23 -120 -6 -22 -13 -51 -16 -65
-15 -76 -74 -253 -120 -362 -9 -21 -16 -40 -16 -43 -1 -8 -90 -175 -128 -240
-87 -146 -192 -284 -304 -400 -43 -44 -78 -83 -78 -87 0 -4 -3 -8 -7 -8 -5 -1
-30 -21 -58 -46 -27 -25 -66 -58 -85 -72 -19 -14 -39 -31 -45 -36 -34 -37
-273 -184 -380 -236 -84 -40 -198 -91 -205 -92 -8 -1 -32 -9 -75 -25 -22 -8
-47 -17 -55 -18 -8 -2 -31 -9 -50 -14 -53 -16 -248 -59 -305 -66 -27 -4 -63
-9 -80 -12 -16 -2 -184 -7 -372 -10 l-341 -5 0 988 c1 1091 4 1029 -63 1093
-53 51 -148 64 -212 28 -39 -22 -87 -81 -94 -117 -4 -19 -7 -528 -7 -1130 0
-1039 1 -1097 19 -1130 45 -87 98 -111 240 -110 89 1 137 0 238 -3 37 -1 67 0
67 3 0 3 17 4 38 3 116 -8 394 -1 512 12 30 4 69 8 85 10 41 5 73 11 190 35
55 12 111 24 124 26 13 3 83 25 156 49 181 59 325 123 500 220 52 29 225 142
260 169 11 9 36 28 56 44 89 69 141 114 244 218 160 160 273 302 382 477 69
113 189 347 208 407 1 3 7 19 14 35 22 54 83 229 87 254 3 14 14 56 24 95 22
80 48 216 56 291 3 27 7 61 10 75 26 162 20 548 -12 720 -7 35 -14 80 -19 115
-10 80 -109 429 -125 445 -3 3 -6 12 -8 20 -6 27 -81 197 -113 257 -81 150
-103 188 -111 191 -4 2 -8 8 -8 13 0 12 -52 93 -62 97 -5 2 -8 8 -8 13 0 17
-142 198 -230 293 -49 53 -164 166 -220 216 -64 58 -264 205 -356 262 -83 51
-247 138 -346 182 -105 47 -329 122 -418 140 -14 3 -36 8 -50 11 -53 12 -126
26 -160 30 -19 3 -51 8 -70 11 -19 4 -46 9 -60 11 -14 2 -241 6 -505 9 -458 4
-482 4 -520 -14z"/>
</g>
</svg>
