<?xml version="1.0" standalone="no"?>
<!DOCTYPE svg PUBLIC "-//W3C//DTD SVG 20010904//EN"
 "http://www.w3.org/TR/2001/REC-SVG-20010904/DTD/svg10.dtd">
<svg version="1.0" xmlns="http://www.w3.org/2000/svg"
 width="656.000000pt" height="656.000000pt" viewBox="0 0 656.000000 656.000000"
 preserveAspectRatio="xMidYMid meet">
<metadata>
Created by potrace 1.14, written by Peter Selinger 2001-2017
</metadata>
<g transform="translate(0.000000,656.000000) scale(0.100000,-0.100000)"
fill="#000000" stroke="none">
<path d="M560 6015 l0 -545 1228 -1 c675 0 1236 -2 1247 -3 11 -2 54 -6 95
-11 41 -4 83 -11 93 -16 9 -6 17 -8 17 -5 0 9 180 -43 270 -78 131 -51 324
-154 425 -228 323 -236 594 -573 745 -928 17 -41 37 -88 45 -105 12 -28 72
-203 81 -235 23 -91 34 -139 39 -173 2 -16 6 -40 9 -55 12 -59 27 -221 27
-287 1 -94 -14 -267 -30 -360 -17 -98 -21 -117 -37 -175 -9 -30 -18 -62 -19
-70 -18 -81 -142 -382 -184 -449 -8 -13 -16 -31 -17 -39 -2 -8 -7 -18 -12 -21
-5 -3 -17 -22 -27 -41 -76 -151 -318 -443 -467 -562 -23 -18 -48 -40 -57 -48
-9 -8 -46 -35 -81 -59 -36 -25 -67 -47 -70 -50 -7 -9 -38 -26 -97 -58 -29 -15
-53 -31 -53 -35 0 -4 -4 -8 -10 -8 -5 0 -46 -18 -90 -39 -157 -77 -321 -127
-480 -147 -25 -3 -56 -7 -70 -10 -14 -2 -586 -4 -1272 -4 l-1248 0 0 -544 c0
-383 3 -545 11 -548 6 -2 37 -1 68 2 32 3 68 3 81 0 13 -3 49 -3 80 0 31 3 67
3 80 0 13 -3 49 -3 80 0 31 3 67 3 79 0 13 -3 53 -3 89 0 37 3 86 2 110 -1 23
-3 42 -2 42 2 0 4 16 3 35 -1 19 -4 37 -4 40 0 2 4 23 4 45 0 22 -4 58 -4 81
0 22 4 56 4 75 0 19 -4 36 -4 39 0 2 4 23 4 45 0 22 -4 58 -4 81 0 22 4 56 4
75 0 19 -4 36 -4 39 0 2 4 23 4 45 0 22 -4 58 -4 81 0 22 4 56 4 75 0 19 -4
36 -4 39 0 2 4 23 4 45 0 22 -4 58 -4 81 0 22 4 56 4 75 0 19 -4 36 -4 39 0 2
4 23 4 45 0 22 -4 58 -4 81 0 22 4 56 4 75 0 19 -4 36 -4 39 0 2 4 24 4 47 0
24 -5 46 -6 49 -4 4 2 73 6 155 9 191 8 232 12 404 41 95 16 104 17 175 34 28
6 60 14 71 16 12 2 53 14 90 26 38 12 77 23 86 25 17 3 92 31 218 80 311 124
587 282 865 495 155 120 386 348 502 495 15 20 33 41 38 47 13 14 98 131 156
216 174 251 381 700 434 940 1 8 8 33 13 55 6 22 18 76 27 120 23 109 24 117
29 156 3 19 5 34 6 34 1 0 3 14 4 30 2 17 7 66 12 110 11 100 11 550 0 630 -4
33 -9 71 -10 85 -2 22 -11 85 -21 145 -17 106 -61 282 -102 410 -67 209 -195
492 -299 660 -13 22 -27 47 -31 55 -4 8 -11 20 -16 25 -4 6 -27 39 -50 75 -22
36 -44 67 -47 70 -3 3 -17 21 -30 40 -22 32 -110 143 -170 215 -47 57 -265
271 -330 326 -36 30 -67 57 -70 60 -11 13 -238 178 -295 214 -104 66 -221 132
-343 192 -103 52 -238 114 -252 117 -7 2 -71 26 -95 37 -11 5 -65 22 -120 40
-55 17 -107 33 -115 36 -21 8 -21 8 -150 38 -110 26 -250 51 -335 61 -22 2
-60 7 -85 10 -25 4 -577 9 -1227 11 l-1183 4 0 -546z"/>
</g>
</svg>
